<?xml version="1.0" encoding="iso-8859-1"?>
<!-- Generator: Adobe Illustrator 22.1.0, SVG Export Plug-In . SVG Version: 6.00 Build 0)  -->
<svg xmlns="http://www.w3.org/2000/svg" xmlns:xlink="http://www.w3.org/1999/xlink" version="1.1" id="Layer_3" x="0px" y="0px" viewBox="0 0 64 64" style="enable-background:new 0 0 64 64;" xml:space="preserve" width="512" height="512">
<g>
	<path d="M20,41.26V8c0-3.86-3.141-7-7-7S6,4.14,6,8v33.26c-3.545,2.547-5.421,6.77-4.919,11.152   c0.629,5.482,5.066,9.903,10.551,10.512c0.447,0.049,0.894,0.074,1.339,0.074c2.955,0,5.824-1.08,8.031-3.055   C23.543,57.668,25,54.408,25,51C25,47.119,23.141,43.518,20,41.26z M19.668,58.453c-2.147,1.922-4.927,2.806-7.815,2.483   c-4.566-0.506-8.261-4.187-8.785-8.751c-0.436-3.809,1.28-7.472,4.479-9.56C7.829,42.44,8,42.125,8,41.787V8c0-2.757,2.243-5,5-5   s5,2.243,5,5v3h-4v2h4v2h-4v2h4v2h-4v2h4v20.787c0,0.338,0.171,0.653,0.453,0.837C21.301,44.483,23,47.614,23,51   C23,53.84,21.785,56.557,19.668,58.453z"/>
	<path d="M16,43.586V24c0-0.552-0.447-1-1-1h-4c-0.553,0-1,0.448-1,1v19.586C7.022,44.796,5,47.744,5,51c0,4.411,3.589,8,8,8   s8-3.589,8-8C21,47.744,18.978,44.796,16,43.586z M11.285,45.252C11.709,45.126,12,44.736,12,44.294V25h2v19.294   c0,0.442,0.291,0.832,0.715,0.958c2.198,0.655,3.816,2.534,4.197,4.748H17c-0.266,0-0.52,0.105-0.707,0.293L15,51.586l-3.293-3.293   c-0.391-0.391-1.023-0.391-1.414,0L8.586,50H7.088C7.469,47.786,9.087,45.907,11.285,45.252z M13,57c-2.967,0-5.431-2.167-5.91-5H9   c0.266,0,0.52-0.105,0.707-0.293L11,50.414l3.293,3.293C14.488,53.902,14.744,54,15,54s0.512-0.098,0.707-0.293L17.414,52h1.496   C18.431,54.833,15.967,57,13,57z"/>
	<path d="M49,23c4.411,0,8-3.589,8-8s-3.589-8-8-8s-8,3.589-8,8S44.589,23,49,23z M49,9c3.309,0,6,2.691,6,6s-2.691,6-6,6   s-6-2.691-6-6S45.691,9,49,9z"/>
	<rect x="48" y="1" width="2" height="4"/>
	<rect x="48" y="25" width="2" height="4"/>
	<rect x="59" y="14" width="4" height="2"/>
	<rect x="35" y="14" width="4" height="2"/>
	<rect x="56.5" y="21.379" transform="matrix(0.7071 -0.7071 0.7071 0.7071 0.2244 47.5416)" width="2" height="4.243"/>
	<rect x="39.5" y="4.379" transform="matrix(0.7071 -0.7071 0.7071 0.7071 7.266 30.5416)" width="2" height="4.243"/>
	<rect x="55.379" y="5.5" transform="matrix(0.7071 -0.7071 0.7071 0.7071 12.2452 42.5624)" width="4.243" height="2"/>
	<rect x="38.379" y="22.5" transform="matrix(0.7071 -0.7071 0.7071 0.7071 -4.7548 35.5208)" width="4.243" height="2"/>
	<path d="M33.293,51.293l-4,4l1.414,1.414L33,54.414V62h2v-7.586l2.293,2.293l1.414-1.414l-4-4   C34.316,50.902,33.684,50.902,33.293,51.293z"/>
	<path d="M45.293,43.293l-4,4l1.414,1.414L45,46.414V62h2V46.414l2.293,2.293l1.414-1.414l-4-4   C46.316,42.902,45.684,42.902,45.293,43.293z"/>
	<path d="M57.293,35.293l-4,4l1.414,1.414L57,38.414V62h2V38.414l2.293,2.293l1.414-1.414l-4-4   C58.316,34.902,57.684,34.902,57.293,35.293z"/>
</g>
</svg>
