<svg height="512pt" viewBox="0 -49 512 512" width="512pt" xmlns="http://www.w3.org/2000/svg"><path d="m206.5 49.3125c5.523438 0 10-4.476562 10-10v-29.3125c0-5.523438-4.476562-10-10-10s-10 4.476562-10 10v29.3125c0 5.523438 4.476562 10 10 10zm0 0"/><path d="m206.5 363.6875c-5.523438 0-10 4.476562-10 10v29.3125c0 5.523438 4.476562 10 10 10s10-4.476562 10-10v-29.3125c0-5.523438-4.476562-10-10-10zm0 0"/><path d="m39.3125 196.5h-29.3125c-5.523438 0-10 4.476562-10 10s4.476562 10 10 10h29.3125c5.523438 0 10-4.476562 10-10s-4.476562-10-10-10zm0 0"/><path d="m324.71875 98.28125c2.5625 0 5.121094-.976562 7.070312-2.929688l20.730469-20.726562c3.902344-3.90625 3.902344-10.238281 0-14.144531-3.90625-3.90625-10.238281-3.90625-14.144531 0l-20.726562 20.726562c-3.90625 3.90625-3.90625 10.238281 0 14.144531 1.953124 1.953126 4.511718 2.929688 7.070312 2.929688zm0 0"/><path d="m81.210938 317.648438-20.730469 20.726562c-3.902344 3.90625-3.902344 10.238281 0 14.144531 1.953125 1.953125 4.511719 2.925781 7.074219 2.925781 2.558593 0 5.117187-.972656 7.070312-2.925781l20.726562-20.730469c3.90625-3.902343 3.90625-10.234374 0-14.140624s-10.238281-3.90625-14.140624 0zm0 0"/><path d="m81.210938 95.351562c1.949218 1.953126 4.511718 2.929688 7.070312 2.929688s5.117188-.976562 7.070312-2.929688c3.90625-3.90625 3.90625-10.238281 0-14.140624l-20.726562-20.730469c-3.90625-3.902344-10.238281-3.902344-14.144531 0-3.90625 3.90625-3.90625 10.238281 0 14.144531zm0 0"/><path d="m414.375 147c-29.621094 0-56.445312 13.28125-74.445312 34.46875-11.78125-62.9375-67.125-110.722656-133.429688-110.722656-74.855469 0-135.75 60.898437-135.75 135.753906 0 74.851562 60.894531 135.75 135.75 135.75 19.765625 0 38.746094-4.136719 56.496094-12.289062 10.429687 7.71875 23.320312 12.289062 37.257812 12.289062h114.121094c53.828125 0 97.625-43.792969 97.625-97.625s-43.796875-97.625-97.625-97.625zm-323.625 59.5c0-63.824219 51.925781-115.75 115.75-115.75s115.75 51.925781 115.75 115.75c0 .925781-.011719 1.84375-.03125 2.765625-.019531.832031.074219 1.640625.25 2.417969-.957031 2.675781-1.808594 5.402344-2.53125 8.183594-6.316406-2.082032-12.960938-3.160157-19.683594-3.160157-34.613281 0-62.769531 28.160157-62.769531 62.773438 0 12.964843 3.949219 25.023437 10.710937 35.035156-13.242187 5.132813-27.21875 7.734375-41.695312 7.734375-63.824219 0-115.75-51.925781-115.75-115.75zm323.625 115.75h-114.121094c-23.582031 0-42.769531-19.1875-42.769531-42.769531 0-23.585938 19.1875-42.773438 42.769531-42.773438 7.761719 0 15.363282 2.101563 21.980469 6.078125 2.910156 1.75 6.507813 1.902344 9.554687.40625 3.046876-1.496094 5.128907-4.429687 5.527344-7.800781 4.617188-38.988281 37.746094-68.390625 77.058594-68.390625 42.800781 0 77.625 34.824219 77.625 77.625 0 42.804688-34.824219 77.625-77.625 77.625zm0 0"/><path d="m162.691406 129.589844c-27.566406 15.730468-44.691406 45.199218-44.691406 76.910156 0 23.640625 9.207031 45.863281 25.921875 62.578125 1.953125 1.953125 4.511719 2.929687 7.070313 2.929687 2.558593 0 5.117187-.976562 7.070312-2.929687 3.90625-3.902344 3.90625-10.234375 0-14.140625-12.9375-12.9375-20.0625-30.140625-20.0625-48.4375 0-24.546875 13.261719-47.359375 34.605469-59.542969 4.796875-2.734375 6.464843-8.84375 3.726562-13.640625-2.734375-4.796875-8.84375-6.464844-13.640625-3.726562zm0 0"/><path d="m206.5 118h-.332031c-5.523438.027344-9.976563 4.527344-9.949219 10.050781.027344 5.507813 4.5 9.949219 10 9.949219h.050781.230469c5.523438 0 10-4.476562 10-10s-4.476562-10-10-10zm0 0"/></svg>