<?xml version="1.0" encoding="iso-8859-1"?>
<!-- Generator: Adobe Illustrator 19.0.0, SVG Export Plug-In . SVG Version: 6.00 Build 0)  -->
<svg version="1.1" id="Capa_1" xmlns="http://www.w3.org/2000/svg" xmlns:xlink="http://www.w3.org/1999/xlink" x="0px" y="0px"
	 viewBox="0 0 512 512" style="enable-background:new 0 0 512 512;" xml:space="preserve">
<g>
	<g>
		<path d="M414.765,1.652c-28.836-7.153-56.839,14.806-56.839,44.513c0,6.426,0,243.214,0,260.477
			c-37.87,17.75-62.066,55.568-62.066,97.715c0,56.53,43.669,103.495,99.907,107.624c4.18,0.305,7.737-2.845,8.037-6.938
			c0.302-4.135-2.804-7.734-6.939-8.036c-48.219-3.542-85.991-44.237-85.991-92.65c0-37.745,22.542-71.457,57.428-85.885
			c2.808-1.161,4.639-3.9,4.639-6.938c0-25.633,0-238.204,0-265.369c0-19.965,18.816-34.748,38.209-29.939
			c4.024,0.996,8.096-1.454,9.094-5.479C421.242,6.721,418.79,2.65,414.765,1.652z"/>
	</g>
</g>
<g>
	<g>
		<path d="M449.627,306.642V46.164c0-8.812-2.533-17.386-7.325-24.796c-2.252-3.482-6.9-4.481-10.381-2.228
			c-3.481,2.251-4.479,6.9-2.227,10.38c7.51,11.615,4.026,21.248,4.919,39.245h-30.836c-4.146,0-7.507,3.36-7.507,7.507
			c0,4.147,3.361,7.507,7.507,7.507h30.836v42.062h-30.836c-4.146,0-7.507,3.36-7.507,7.507c0,4.147,3.361,7.507,7.507,7.507h30.836
			v42.062h-30.836c-4.146,0-7.507,3.36-7.507,7.507s3.361,7.507,7.507,7.507h30.836v42.061h-30.836c-4.146,0-7.507,3.36-7.507,7.507
			c0,4.147,3.361,7.507,7.507,7.507h30.836v56.525c0,3.038,1.831,5.777,4.639,6.938c34.886,14.428,57.428,48.14,57.428,85.885
			c0,43.418-30.745,81.601-73.106,90.791c-4.052,0.879-6.623,4.876-5.745,8.928c0.876,4.036,4.859,6.628,8.929,5.745
			c48.659-10.554,84.937-53.907,84.937-105.463C511.694,362.209,487.497,324.392,449.627,306.642z"/>
	</g>
</g>
<g>
	<g>
		<path d="M422.63,339.154V315.71c0-9.76-7.94-17.699-17.699-17.699h-2.306c-9.76,0-17.699,7.94-17.699,17.699v23.444
			c-28.753,8.295-49.026,34.785-49.026,65.203c0,57.716,67.608,88.689,111.376,52.075c3.18-2.661,3.602-7.394,0.941-10.575
			c-2.661-3.181-7.396-3.602-10.574-0.941c-34.09,28.521-86.728,4.376-86.728-40.559c0-25.331,18.054-47.162,42.927-51.912
			c3.539-0.677,6.099-3.772,6.099-7.374V315.71c0-1.454,1.229-2.685,2.685-2.685h2.306c1.455,0,2.685,1.23,2.685,2.685v29.36
			c0,3.604,2.56,6.698,6.099,7.374c33.03,6.307,51.687,41.513,38.878,72.201c-1.597,3.826,0.21,8.223,4.037,9.82
			c3.823,1.598,8.221-0.209,9.82-4.036C481.956,393.275,461.609,350.4,422.63,339.154z"/>
	</g>
</g>
<g>
	<g>
		<path d="M327.717,151.295l-41.061-0.005l19.627-15.442c11.23-8.686,13.567-25.079,4.68-36.588
			c-4.25-5.495-10.405-9.01-17.332-9.896c-6.851-0.873-13.615,0.929-19.076,5.078l-47.958,32.927l32.768-48.14
			c12.545-16.526,1.534-40.952-19.692-41.806c-8.454-0.324-16.572,3.43-21.685,10.041l-14.222,18.08l0.004-39.463
			C203.769,11.699,192.069,0,177.685,0c-14.383,0-26.083,11.699-26.083,26.082l-0.004,41.061l-15.442-19.627
			c-14.069-18.19-43.532-10.437-46.484,12.653c-0.875,6.847,0.925,13.608,5.071,19.068l31.997,46.873L79.516,94.419
			c-11.308-8.565-27.6-6.501-36.375,4.847c-8.879,11.494-6.544,27.902,4.632,36.547l19.676,15.48l-41.061,0.005
			c-14.382,0-26.083,11.701-26.083,26.084s11.701,26.083,26.084,26.083l39.462-0.004l-18.03,14.185
			c-18.226,14.097-10.484,43.526,12.652,46.484c6.834,0.868,13.583-0.919,19.037-5.049l49.338-33.005l-34.063,48.129
			c-8.675,11.36-6.544,27.696,4.787,36.457c11.477,8.863,27.885,6.564,36.545-4.634l15.48-19.676l0.004,41.061
			c0,14.382,11.7,26.084,26.083,26.084c14.382,0,26.083-11.7,26.083-26.085l-0.004-39.462l14.185,18.03
			c8.673,11.212,25.071,13.572,36.587,4.68c11.333-8.763,13.452-25.099,4.786-36.451l-34.989-49.544l50.226,34.39
			c5.46,4.149,12.224,5.947,19.072,5.075c12.912-1.653,22.243-12.313,22.745-24.762c0.34-8.451-3.431-16.573-10.042-21.685
			l-18.079-14.223l39.463,0.004c14.382,0,26.084-11.699,26.084-26.083S342.099,151.295,327.717,151.295z M327.715,188.447
			c-4.627,0-58.521-0.006-61.149-0.006c-7.101,0-10.234,9.008-4.643,13.408l35.172,27.671c2.822,2.183,4.42,5.638,4.274,9.241
			c-0.208,5.19-4.078,9.761-9.643,10.47c-3.652,0.47-5.945-0.699-8.519-2.456l-82.72-56.639c-2.299-1.574-5.28-1.745-7.744-0.445
			c-2.463,1.3-4.006,3.858-4.005,6.643v1.574c0,1.551,0.48,3.063,1.375,4.328c60.296,85.374,57.029,80.762,57.226,81.018
			c3.708,4.79,2.826,11.802-1.984,15.519c-4.843,3.74-11.818,2.816-15.567-2.033l-27.633-35.122
			c-1.979-2.513-5.333-3.499-8.357-2.451c-3.024,1.047-5.051,3.896-5.051,7.095l0.006,61.148c0,6.104-4.965,11.069-11.068,11.069
			s-11.068-4.965-11.068-11.07l-0.007-62.742c0-3.199-2.028-6.047-5.051-7.093c-0.806-0.279-1.635-0.413-2.454-0.413
			c-2.258,0-4.45,1.021-5.902,2.865l-28.924,36.764c-2.183,2.821-5.647,4.438-9.24,4.275c-5.281-0.214-9.772-4.159-10.473-9.644
			c-0.903-7.069-0.981-2.563,60.02-89.849c2.091-2.955,1.776-6.983-0.751-9.575c-2.525-2.593-6.542-3.017-9.551-1.001
			l-83.319,55.737c-13.93,9.255-24.617-8.965-13.908-17.249l35.123-27.634c2.514-1.979,3.499-5.333,2.452-8.357
			c-1.047-3.024-3.895-5.051-7.095-5.051l-61.148,0.006c-6.103,0-11.068-4.965-11.068-11.068c0-6.104,4.965-11.069,11.069-11.069
			l62.742-0.007c3.199,0,6.047-2.028,7.093-5.052c1.046-3.024,0.062-6.377-2.452-8.356L57.009,123.97
			c-4.762-3.684-5.742-10.666-1.986-15.526c3.715-4.807,10.727-5.699,15.522-1.987c0.4,0.307-2.807-1.872,80.177,53.825
			c2.988,2.006,6.979,1.608,9.512-0.946c2.533-2.554,2.9-6.548,0.871-9.52c-56.477-82.726-54.082-79.246-54.34-79.58
			c-3.723-4.81-2.808-11.816,1.985-15.52c4.845-3.743,11.819-2.813,15.567,2.033l28.885,36.715c1.979,2.514,5.332,3.502,8.356,2.451
			c3.023-1.046,5.051-3.894,5.051-7.093l0.007-62.742c0-6.103,4.965-11.068,11.068-11.068c6.103,0,11.068,4.965,11.068,11.067
			l-0.006,61.149c-0.001,7.103,9.008,10.236,13.408,4.644l27.671-35.171c2.182-2.823,5.637-4.419,9.242-4.274
			c5.189,0.208,9.759,4.078,10.471,9.644c0.48,3.763-0.791,6.062-2.468,8.535l-55.367,81.345c-2.032,2.986-1.651,6.995,0.908,9.543
			c2.56,2.55,6.57,2.916,9.547,0.87c84.729-58.178,81.101-55.669,81.403-55.905c4.819-3.73,11.824-2.798,15.52,1.984
			c3.75,4.856,2.804,11.826-2.034,15.568l-36.714,28.885c-2.514,1.979-3.498,5.332-2.452,8.356c1.046,3.024,3.895,5.052,7.093,5.052
			l62.741,0.007c6.104,0,11.069,4.965,11.069,11.069C338.783,183.482,333.819,188.447,327.715,188.447z"/>
	</g>
</g>
<g>
</g>
<g>
</g>
<g>
</g>
<g>
</g>
<g>
</g>
<g>
</g>
<g>
</g>
<g>
</g>
<g>
</g>
<g>
</g>
<g>
</g>
<g>
</g>
<g>
</g>
<g>
</g>
<g>
</g>
</svg>
