<svg height="512pt" viewBox="0 -9 512 512" width="512pt" xmlns="http://www.w3.org/2000/svg"><g fill-rule="evenodd"><path d="m268.148438 317.9375h182.589843c5.523438 0 10-4.476562 10-10 0-5.519531-4.476562-10-10-10h-182.589843c-5.519532 0-10 4.480469-10 10 0 5.523438 4.480468 10 10 10zm0 0"/><path d="m268.148438 226.09375h93.480468c5.523438 0 10-4.480469 10-10 0-5.523438-4.476562-10-10-10h-93.480468c-5.519532 0-10 4.476562-10 10s4.480468 10 10 10zm0 0"/><path d="m268.148438 272.015625h182.589843c5.523438 0 10-4.476563 10-10s-4.476562-10-10-10h-182.589843c-5.519532 0-10 4.476563-10 10s4.480468 10 10 10zm0 0"/><path d="m268.148438 403.222656h108.242187c5.519531 0 10-4.476562 10-10 0-5.519531-4.480469-10-10-10h-108.242187c-5.519532 0-10 4.480469-10 10 0 5.523438 4.480468 10 10 10zm0 0"/><path d="m85.214844 304.660156c0 26.890625 21.878906 48.765625 48.769531 48.765625s48.769531-21.875 48.769531-48.765625c0-26.894531-21.875-48.769531-48.769531-48.769531-26.890625 0-48.769531 21.875-48.769531 48.769531zm48.769531-28.769531c15.863281 0 28.769531 12.90625 28.769531 28.769531 0 15.863282-12.90625 28.765625-28.769531 28.765625s-28.769531-12.902343-28.769531-28.765625c0-15.863281 12.90625-28.769531 28.769531-28.769531zm0 0"/><path d="m192.179688 348.710938c-3.90625-3.902344-10.238282-3.902344-14.144532.003906-3.902344 3.902344-3.902344 10.234375 0 14.140625l11.824219 11.820312c1.953125 1.953125 4.511719 2.929688 7.070313 2.929688 2.558593 0 5.117187-.976563 7.070312-2.929688 3.90625-3.90625 3.90625-10.238281 0-14.144531zm0 0"/><path d="m189.859375 234.640625-11.824219 11.824219c-3.902344 3.902344-3.902344 10.234375 0 14.140625 1.953125 1.953125 4.515625 2.929687 7.074219 2.929687s5.117187-.976562 7.070313-2.929687l11.820312-11.820313c3.90625-3.90625 3.90625-10.238281 0-14.144531-3.90625-3.902344-10.238281-3.902344-14.140625 0zm0 0"/><path d="m233.003906 304.660156c0-5.523437-4.476562-10-10-10h-16.722656c-5.519531 0-10 4.476563-10 10 0 5.519532 4.480469 10 10 10h16.722656c5.523438 0 10-4.480468 10-10zm0 0"/><path d="m143.984375 232.359375v-16.71875c0-5.523437-4.476563-10-10-10s-10 4.476563-10 10v16.71875c0 5.523437 4.476563 10 10 10s10-4.476563 10-10zm0 0"/><path d="m123.984375 376.960938v16.71875c0 5.519531 4.476563 10 10 10s10-4.480469 10-10v-16.71875c0-5.523438-4.476563-10-10-10s-10 4.476562-10 10zm0 0"/><path d="m75.789062 348.710938-11.820312 11.820312c-3.90625 3.90625-3.90625 10.238281 0 14.144531 1.953125 1.953125 4.511719 2.929688 7.070312 2.929688 2.558594 0 5.117188-.976563 7.070313-2.929688l11.820313-11.820312c3.90625-3.90625 3.90625-10.238281 0-14.144531-3.90625-3.902344-10.238282-3.902344-14.140626 0zm0 0"/><path d="m34.964844 304.660156c0 5.519532 4.476562 10 10 10h16.71875c5.523437 0 10-4.480468 10-10 0-5.523437-4.476563-10-10-10h-16.71875c-5.523438 0-10 4.476563-10 10zm0 0"/><path d="m78.109375 234.640625c-3.90625-3.902344-10.238281-3.902344-14.140625 0-3.90625 3.90625-3.90625 10.238281 0 14.140625l11.820312 11.824219c1.953126 1.953125 4.511719 2.929687 7.070313 2.929687s5.117187-.976562 7.070313-2.929687c3.90625-3.90625 3.90625-10.234375 0-14.140625zm0 0"/><path d="m502 213.695312c-5.523438 0-10 4.476563-10 10v211.335938c0 21.015625-17.09375 38.109375-38.105469 38.109375h-395.789062c-21.011719 0-38.105469-17.09375-38.105469-38.109375v-20c0-5.519531-4.476562-10-10-10s-10 4.480469-10 10v20c0 32.042969 26.066406 58.109375 58.105469 58.109375h395.785156c32.042969 0 58.109375-26.066406 58.109375-58.109375v-211.335938c0-5.523437-4.476562-10-10-10zm0 0"/><path d="m453.894531 65.585938h-24.027343v-19.914063c0-25.183594-20.484376-45.671875-45.667969-45.671875-25.183594 0-45.671875 20.488281-45.671875 45.671875v19.914063h-36.855469v-19.914063c0-25.183594-20.488281-45.671875-45.671875-45.671875s-45.671875 20.488281-45.671875 45.671875v19.914063h-36.855469v-19.914063c0-25.183594-20.488281-45.671875-45.667968-45.671875-25.183594 0-45.671876 20.488281-45.671876 45.671875v19.914063h-24.027343c-32.039063 0-58.105469 26.066406-58.105469 58.105468v211.339844c0 5.523438 4.476562 10 10 10s10-4.476562 10-10v-211.339844c0-21.011718 17.09375-38.105468 38.105469-38.105468h24.027343v19.917968c0 25.183594 20.484376 45.667969 45.667969 45.667969 25.183594 0 45.671875-20.484375 45.671875-45.667969v-19.917968h36.855469v19.917968c0 25.183594 20.488281 45.667969 45.671875 45.667969s45.667969-20.484375 45.667969-45.667969v-19.917968h36.859375v19.917968c0 25.183594 20.488281 45.667969 45.667968 45.667969 25.183594 0 45.671876-20.484375 45.671876-45.667969v-19.917968h24.023437c21.015625 0 38.109375 17.097656 38.109375 38.105468v20.003906c0 5.523438 4.476562 10 10 10 5.519531 0 10-4.476562 10-10v-20.003906c0-32.039062-26.066406-58.105468-58.105469-58.105468zm-300.421875 39.917968c0 14.152344-11.515625 25.667969-25.667968 25.667969-14.15625 0-25.671876-11.515625-25.671876-25.667969v-59.832031c0-14.15625 11.515626-25.671875 25.671876-25.671875 14.152343 0 25.667968 11.515625 25.667968 25.671875zm128.199219 0c0 14.152344-11.519531 25.667969-25.671875 25.667969s-25.671875-11.515625-25.671875-25.667969v-59.832031c0-14.15625 11.519531-25.671875 25.671875-25.671875s25.671875 11.515625 25.671875 25.671875zm128.195313 0c0 14.152344-11.515626 25.667969-25.671876 25.667969-14.152343 0-25.667968-11.515625-25.667968-25.667969v-59.832031c0-14.15625 11.515625-25.671875 25.667968-25.671875 14.15625 0 25.671876 11.515625 25.671876 25.671875zm0 0"/><path d="m10 385.03125c5.507812 0 10-4.492188 10-10s-4.492188-10-10-10-10 4.492188-10 10 4.492188 10 10 10zm0 0"/><path d="m502 173.695312c-5.507812 0-10 4.492188-10 10 0 5.507813 4.492188 10 10 10s10-4.492187 10-10c0-5.507812-4.492188-10-10-10zm0 0"/></g></svg>